<?xml version="1.0" encoding="UTF-8"?>
<svg id="Layer_1" data-name="Layer 1" xmlns="http://www.w3.org/2000/svg" viewBox="0 0 135.08 48">
  <defs>
    <style>
      .cls-1 {
        fill: #fff;
      }

      .cls-2 {
        fill: #b52e31;
      }

      .cls-3 {
        fill: #e23237;
      }
    </style>
  </defs>
  <rect class="cls-2" width="135.08" height="48" rx="13.56" ry="13.56"/>
  <g>
    <circle class="cls-1" cx="24.24" cy="23.97" r="15.86"/>
    <g>
      <path class="cls-3" d="m15.33,17.65l8.8-3.13,9.03,3.08-1.46,11.64-7.57,4.19-7.45-4.14-1.35-11.65Z"/>
      <path class="cls-2" d="m33.16,17.6l-9.03-3.08v18.91l7.57-4.19s1.46-11.64,1.46-11.64Z"/>
      <path class="cls-1" d="m24.14,16.73l-5.49,12.2,2.05-.04,1.11-2.76h4.91l1.2,2.78,1.95.04-5.73-12.22Zm.01,3.92l1.86,3.88h-3.47l1.62-3.88h0Z"/>
    </g>
  </g>
  <g>
    <path class="cls-1" d="m58.36,28.68h-1.79c-.2,0-.37-.05-.5-.14-.13-.09-.22-.21-.27-.36l-.59-1.73h-3.78l-.59,1.73c-.05.13-.13.24-.27.34-.13.1-.29.15-.48.15h-1.8l3.85-9.95h2.36l3.85,9.95Zm-6.39-3.8h2.72l-.91-2.72c-.06-.17-.13-.38-.21-.61s-.16-.49-.24-.76c-.07.28-.15.54-.23.77-.08.24-.15.44-.22.61l-.92,2.71Z"/>
    <path class="cls-1" d="m62.69,18.75c.07,0,.13.03.18.05.05.02.11.06.16.11.05.05.11.11.17.18l4.72,5.97c-.02-.19-.03-.38-.04-.56,0-.18-.01-.35-.01-.51v-5.26h2.04v9.95h-1.2c-.18,0-.33-.03-.45-.08s-.24-.16-.36-.3l-4.69-5.92c.01.17.03.34.03.51s.01.32.01.47v5.33h-2.03v-9.95h1.21c.1,0,.18,0,.25.01Z"/>
    <path class="cls-1" d="m78.27,27.02c.32,0,.6-.03.85-.08s.48-.13.7-.22v-1.51h-.98c-.15,0-.26-.04-.34-.12s-.12-.17-.12-.29v-1.27h3.54v4.2c-.25.19-.52.35-.79.48s-.57.24-.88.33-.64.15-1,.19-.73.06-1.14.06c-.73,0-1.4-.13-2.02-.39-.62-.26-1.15-.61-1.61-1.07s-.81-.99-1.06-1.61c-.26-.62-.39-1.3-.39-2.02s.12-1.42.37-2.04c.25-.62.6-1.16,1.05-1.61.46-.45,1.01-.8,1.66-1.05s1.37-.38,2.17-.38c.41,0,.8.03,1.17.1.36.07.7.16,1.01.28.31.12.59.26.84.42s.48.34.68.53l-.67,1.02c-.06.1-.14.17-.23.23-.09.05-.19.08-.29.08-.14,0-.28-.04-.42-.14-.18-.11-.35-.2-.51-.28-.16-.08-.33-.14-.5-.2-.17-.05-.35-.09-.53-.11-.19-.02-.4-.03-.63-.03-.43,0-.82.08-1.17.23s-.64.37-.88.64c-.24.28-.43.61-.56,1-.13.39-.2.82-.2,1.3,0,.53.07,1,.22,1.41s.35.76.6,1.04c.26.28.56.5.91.65.35.15.74.22,1.16.22Z"/>
    <path class="cls-1" d="m89.49,26.86c.31,0,.59-.05.83-.15.24-.1.45-.25.62-.44.17-.19.3-.42.39-.7s.13-.59.13-.94v-5.89h2.31v5.89c0,.61-.1,1.17-.3,1.68s-.48.95-.85,1.32-.82.66-1.34.86c-.53.21-1.12.31-1.78.31s-1.26-.1-1.79-.31c-.53-.21-.98-.49-1.34-.86-.37-.37-.65-.81-.85-1.32-.2-.51-.29-1.07-.29-1.68v-5.89h2.31v5.88c0,.35.04.66.13.94s.22.51.39.7c.17.19.37.34.62.44.24.1.52.15.83.15Z"/>
    <path class="cls-1" d="m99.62,26.84h3.69v1.84h-5.99v-9.95h2.31v8.1Z"/>
    <path class="cls-1" d="m115.71,28.68h-1.79c-.2,0-.37-.05-.5-.14-.13-.09-.22-.21-.27-.36l-.59-1.73h-3.78l-.59,1.73c-.05.13-.13.24-.27.34-.13.1-.29.15-.48.15h-1.8l3.85-9.95h2.36l3.85,9.95Zm-6.39-3.8h2.72l-.91-2.72c-.06-.17-.13-.38-.21-.61-.08-.23-.16-.49-.24-.76-.07.28-.15.54-.22.77-.08.24-.15.44-.22.61l-.92,2.71Z"/>
    <path class="cls-1" d="m120.87,25v3.68h-2.31v-9.95h3.24c.72,0,1.33.07,1.84.22.51.15.92.35,1.24.62.32.26.55.58.7.94.15.36.22.75.22,1.17,0,.32-.04.63-.13.92-.09.29-.21.55-.39.79-.17.24-.38.46-.63.65-.25.19-.53.35-.86.47.15.08.3.17.43.29.13.11.25.25.35.42l2.12,3.46h-2.09c-.39,0-.67-.15-.83-.44l-1.65-2.89c-.07-.13-.16-.22-.26-.27s-.24-.08-.41-.08h-.59Zm0-1.59h.93c.31,0,.58-.04.8-.12.22-.08.4-.19.54-.33s.24-.31.31-.5c.06-.19.1-.39.1-.61,0-.44-.14-.78-.43-1.02-.28-.25-.72-.37-1.32-.37h-.93v2.95Z"/>
  </g>
</svg>