<?xml version="1.0" encoding="UTF-8"?>
<svg id="Layer_1" data-name="Layer 1" xmlns="http://www.w3.org/2000/svg" xmlns:xlink="http://www.w3.org/1999/xlink" viewBox="0 0 154.68 48">
  <defs>
    <style>
      .cls-1 {
        fill: #fff;
      }

      .cls-2 {
        fill: url(#linear-gradient-2);
        stroke: #fff;
        stroke-width: .04px;
      }

      .cls-3 {
        fill: #6610f2;
      }

      .cls-4 {
        fill: url(#linear-gradient);
      }
    </style>
    <linearGradient id="linear-gradient" x1="16.69" y1="122.22" x2="33.22" y2="109.1" gradientTransform="translate(0 140.22) scale(1 -1)" gradientUnits="userSpaceOnUse">
      <stop offset="0" stop-color="#9013fe"/>
      <stop offset="1" stop-color="#6610f2"/>
    </linearGradient>
    <linearGradient id="linear-gradient-2" x1="21.77" y1="119.61" x2="25.47" y2="113.36" gradientTransform="translate(0 140.22) scale(1 -1)" gradientUnits="userSpaceOnUse">
      <stop offset="0" stop-color="#fff"/>
      <stop offset="1" stop-color="#f1e5fc"/>
    </linearGradient>
  </defs>
  <rect class="cls-3" width="154.68" height="48" rx="13.56" ry="13.56"/>
  <circle class="cls-1" cx="24.24" cy="24" r="15.86"/>
  <g>
    <path class="cls-1" d="m49.11,28.68v-9.95h3.66c.69,0,1.27.06,1.75.19.48.13.88.31,1.18.54s.53.51.67.85c.14.33.21.7.21,1.11,0,.22-.03.44-.1.65s-.16.4-.3.58c-.14.18-.31.35-.53.5-.21.15-.47.28-.77.39.66.16,1.14.42,1.45.78.31.36.47.82.47,1.38,0,.42-.08.82-.25,1.18-.16.36-.4.68-.72.95-.32.27-.71.48-1.17.64-.46.15-1,.23-1.59.23h-3.97Zm2.31-5.76h1.2c.25,0,.49-.02.69-.05.21-.04.38-.1.52-.19.14-.09.25-.22.33-.38s.11-.36.11-.6-.03-.43-.09-.59c-.06-.16-.15-.28-.27-.38-.12-.1-.28-.16-.47-.2-.19-.04-.41-.06-.67-.06h-1.35v2.46Zm0,1.54v2.48h1.62c.3,0,.55-.04.75-.12.19-.08.34-.18.45-.3s.18-.26.23-.42c.04-.15.06-.31.06-.47,0-.18-.02-.35-.07-.49s-.13-.27-.25-.37c-.12-.1-.27-.18-.46-.23s-.43-.08-.72-.08h-1.61Z"/>
    <path class="cls-1" d="m69.93,23.7c0,.72-.12,1.39-.37,2.01s-.6,1.16-1.05,1.61c-.45.46-.99.82-1.63,1.08-.63.26-1.34.39-2.11.39s-1.48-.13-2.12-.39c-.64-.26-1.18-.62-1.63-1.08-.45-.46-.8-1-1.05-1.61s-.37-1.29-.37-2.01.12-1.39.37-2.01.6-1.16,1.05-1.61c.45-.46,1-.81,1.63-1.07.64-.26,1.34-.39,2.12-.39s1.48.13,2.11.39,1.18.62,1.63,1.08c.45.46.8.99,1.05,1.61s.37,1.29.37,2Zm-2.36,0c0-.49-.06-.93-.19-1.33-.13-.39-.31-.73-.55-1-.24-.27-.53-.48-.88-.63s-.74-.22-1.18-.22-.84.07-1.19.22c-.35.15-.64.36-.88.63-.24.27-.42.61-.55,1-.13.39-.19.84-.19,1.33s.06.94.19,1.33c.13.39.31.73.55,1,.24.27.53.48.88.62.35.14.75.21,1.19.21s.83-.07,1.18-.21.64-.35.88-.62c.24-.27.42-.61.55-1,.13-.39.19-.84.19-1.33Z"/>
    <path class="cls-1" d="m82.9,23.7c0,.72-.12,1.39-.37,2.01s-.6,1.16-1.05,1.61c-.45.46-.99.82-1.63,1.08-.63.26-1.34.39-2.11.39s-1.48-.13-2.12-.39c-.64-.26-1.18-.62-1.63-1.08-.45-.46-.8-1-1.05-1.61s-.37-1.29-.37-2.01.12-1.39.37-2.01.6-1.16,1.05-1.61c.45-.46,1-.81,1.63-1.07.64-.26,1.34-.39,2.12-.39s1.48.13,2.11.39,1.18.62,1.63,1.08c.45.46.8.99,1.05,1.61s.37,1.29.37,2Zm-2.36,0c0-.49-.06-.93-.19-1.33-.13-.39-.31-.73-.55-1-.24-.27-.53-.48-.88-.63s-.74-.22-1.18-.22-.84.07-1.19.22c-.35.15-.64.36-.88.63-.24.27-.42.61-.55,1-.13.39-.19.84-.19,1.33s.06.94.19,1.33c.13.39.31.73.55,1,.24.27.53.48.88.62.35.14.75.21,1.19.21s.83-.07,1.18-.21.64-.35.88-.62c.24-.27.42-.61.55-1,.13-.39.19-.84.19-1.33Z"/>
    <path class="cls-1" d="m92.86,18.74v1.83h-2.8v8.12h-2.31v-8.12h-2.8v-1.83h7.91Z"/>
    <path class="cls-1" d="m101.41,20.76c-.07.11-.14.19-.22.25s-.17.08-.29.08c-.1,0-.22-.03-.34-.1-.12-.07-.26-.14-.41-.22s-.33-.16-.52-.22c-.2-.07-.42-.1-.67-.1-.43,0-.75.09-.97.28s-.32.43-.32.75c0,.2.06.37.19.5.13.13.29.25.5.34s.44.18.71.26c.27.08.54.17.82.27.28.1.55.21.82.34s.5.3.71.5.37.45.5.75c.13.29.19.65.19,1.06,0,.46-.08.89-.24,1.29-.16.4-.39.75-.69,1.05-.3.3-.68.53-1.12.7-.44.17-.95.26-1.51.26-.31,0-.62-.03-.95-.1-.32-.06-.63-.15-.93-.27-.3-.12-.58-.25-.85-.41-.26-.16-.49-.34-.69-.53l.68-1.08c.05-.08.12-.15.21-.2.09-.05.19-.08.29-.08.14,0,.27.04.41.13.14.09.3.18.47.29s.38.2.6.29c.23.09.5.13.81.13.42,0,.74-.09.98-.28s.35-.48.35-.88c0-.23-.06-.42-.19-.57-.13-.15-.29-.27-.5-.36s-.44-.18-.71-.25c-.26-.07-.54-.15-.81-.24-.28-.09-.55-.2-.81-.33s-.5-.3-.71-.51c-.21-.21-.38-.48-.5-.79-.13-.32-.19-.71-.19-1.17,0-.37.08-.74.23-1.09.15-.36.37-.67.66-.95.29-.28.65-.5,1.07-.67.42-.17.91-.25,1.45-.25.3,0,.6.02.89.07s.56.12.82.21c.26.09.5.21.73.33s.43.28.6.44l-.57,1.07Z"/>
    <path class="cls-1" d="m112.54,18.74v1.83h-2.8v8.12h-2.31v-8.12h-2.8v-1.83h7.9Z"/>
    <path class="cls-1" d="m117.85,25v3.68h-2.31v-9.95h3.24c.72,0,1.33.07,1.84.22.51.15.92.35,1.24.62.32.26.55.58.7.94.15.36.22.75.22,1.17,0,.32-.04.63-.13.92-.09.29-.21.55-.39.79s-.38.46-.63.65c-.25.19-.53.35-.86.47.16.08.3.17.43.29.13.11.25.25.35.42l2.12,3.46h-2.09c-.39,0-.66-.15-.83-.44l-1.65-2.89c-.07-.13-.16-.22-.26-.27s-.24-.08-.41-.08h-.59Zm0-1.59h.93c.31,0,.58-.04.8-.12.22-.08.4-.19.54-.33.14-.14.24-.31.31-.5.06-.19.1-.39.1-.61,0-.44-.14-.78-.43-1.02s-.72-.37-1.32-.37h-.93v2.95Z"/>
    <path class="cls-1" d="m135.92,28.68h-1.79c-.2,0-.37-.05-.5-.14-.13-.09-.22-.21-.27-.36l-.59-1.73h-3.78l-.59,1.73c-.05.13-.13.24-.27.34-.13.1-.29.15-.48.15h-1.8l3.85-9.95h2.36l3.85,9.95Zm-6.39-3.8h2.72l-.91-2.72c-.06-.17-.13-.38-.21-.61-.08-.23-.16-.49-.24-.76-.07.28-.15.54-.22.77-.08.24-.15.44-.22.61l-.92,2.71Z"/>
    <path class="cls-1" d="m141.09,25.36v3.32h-2.31v-9.95h3.51c.7,0,1.3.08,1.81.25s.92.4,1.24.69.57.63.72,1.03c.15.4.23.82.23,1.28,0,.5-.08.95-.24,1.37-.16.42-.4.77-.73,1.07-.33.3-.74.53-1.25.69-.5.17-1.1.25-1.79.25h-1.2Zm0-1.74h1.2c.6,0,1.03-.14,1.3-.43.26-.29.4-.69.4-1.2,0-.23-.03-.43-.1-.62s-.17-.35-.31-.48c-.14-.13-.31-.24-.53-.31-.21-.07-.46-.11-.75-.11h-1.2v3.15Z"/>
  </g>
  <g>
    <path class="cls-4" d="m16.87,18.43c-.04-1.02.76-1.97,1.84-1.97h11.06c1.08,0,1.88.94,1.84,1.97-.03.98.01,2.26.33,3.3.32,1.04.86,1.7,1.75,1.79v.96c-.89.08-1.43.74-1.75,1.79-.32,1.04-.37,2.31-.33,3.3.04,1.02-.76,1.97-1.84,1.97h-11.06c-1.08,0-1.88-.94-1.84-1.97.03-.98-.01-2.26-.33-3.3-.32-1.04-.87-1.7-1.76-1.79v-.96c.89-.08,1.43-.74,1.76-1.79.32-1.04.37-2.31.33-3.3Z"/>
    <path class="cls-2" d="m24.65,28.01c1.75,0,2.8-.86,2.8-2.27,0-1.07-.75-1.84-1.87-1.96v-.04c.82-.13,1.46-.89,1.46-1.74,0-1.21-.96-2-2.41-2h-3.28v8.02h3.3Zm-2.02-7h1.7c.92,0,1.45.41,1.45,1.16,0,.79-.61,1.24-1.71,1.24h-1.43v-2.39Zm0,5.98v-2.64h1.68c1.21,0,1.83.44,1.83,1.31s-.61,1.33-1.76,1.33h-1.76Z"/>
  </g>
</svg>