<?xml version="1.0" encoding="UTF-8"?>
<svg id="Layer_1" data-name="Layer 1" xmlns="http://www.w3.org/2000/svg" viewBox="0 0 84.21 48">
  <defs>
    <style>
      .cls-1 {
        fill: #264de4;
      }

      .cls-2 {
        fill: #fff;
      }

      .cls-3 {
        fill: #2965f1;
      }

      .cls-4 {
        fill: #ebebeb;
      }
    </style>
  </defs>
  <rect class="cls-3" x="0" y="0" width="84.21" height="48" rx="13.56" ry="13.56"/>
  <circle class="cls-2" cx="24.24" cy="24" r="15.86"/>
  <g id="layer1">
    <polygon id="polygon2989" class="cls-1" points="32.62 14.51 31.09 31.59 24.23 33.49 17.4 31.6 15.87 14.51 32.62 14.51"/>
    <polygon id="polygon2991" class="cls-3" points="24.24 32.04 29.78 30.5 31.09 15.9 24.24 15.9 24.24 32.04"/>
    <polygon id="polygon2993" class="cls-4" points="24.24 22.24 19.37 22.24 19.55 24.34 24.24 24.34 24.24 22.24"/>
    <polygon id="polygon2995" class="cls-4" points="24.24 18 24.24 18 18.99 18 19.18 20.1 24.24 20.1 24.24 18"/>
    <polygon id="polygon2997" class="cls-4" points="19.65 25.39 19.94 28.68 24.24 29.87 24.24 29.87 24.24 27.68 24.24 27.69 21.9 27.06 21.75 25.39 20.62 25.39 19.65 25.39"/>
    <polygon id="polygon3005" class="cls-2" points="26.82 24.34 26.57 27.06 24.24 27.69 24.24 29.87 28.53 28.68 28.57 28.32 29.06 22.8 29.11 22.24 29.49 18 24.24 18 24.24 20.1 27.19 20.1 27 22.24 24.24 22.24 24.24 24.34 26.82 24.34"/>
  </g>
  <g>
    <path class="cls-2" d="m55.79,26.11c.05,0,.11.01.16.03s.11.06.16.11l.92.96c-.4.52-.9.92-1.51,1.18-.6.27-1.32.4-2.14.4-.76,0-1.43-.13-2.03-.39-.6-.26-1.11-.61-1.52-1.07-.42-.45-.74-.99-.96-1.61-.22-.62-.33-1.3-.33-2.02s.13-1.42.38-2.04c.25-.62.61-1.16,1.07-1.61.46-.45,1-.8,1.64-1.05s1.34-.38,2.11-.38c.37,0,.72.03,1.05.1.33.07.64.16.93.27.29.12.55.25.79.42.24.16.46.34.64.54l-.78,1.04c-.05.06-.11.12-.18.17-.07.05-.16.08-.29.08-.08,0-.16-.02-.23-.05-.07-.04-.15-.08-.23-.13-.08-.05-.17-.11-.27-.17-.1-.06-.21-.12-.35-.17-.13-.05-.29-.1-.47-.13-.18-.04-.39-.05-.63-.05-.42,0-.8.07-1.15.22-.35.15-.64.36-.89.63s-.44.61-.58,1c-.14.39-.21.83-.21,1.32s.07.96.21,1.36c.14.4.33.73.57,1,.24.27.52.48.84.62.32.14.66.21,1.02.21.21,0,.4,0,.57-.03s.33-.06.48-.11c.15-.05.29-.12.42-.2.13-.08.27-.18.41-.3.05-.04.11-.08.18-.11.06-.03.13-.04.2-.04Z"/>
    <path class="cls-2" d="m65.67,20.76c-.07.11-.14.19-.21.25s-.17.08-.29.08c-.1,0-.22-.03-.34-.1-.12-.07-.26-.14-.41-.22s-.33-.16-.52-.22c-.2-.07-.42-.1-.67-.1-.43,0-.75.09-.97.28-.21.18-.32.43-.32.75,0,.2.06.37.19.5.13.13.29.25.5.34s.44.18.71.26c.27.08.54.17.82.27s.55.21.82.34c.27.13.5.3.71.5.21.21.37.45.5.75.13.29.19.65.19,1.06,0,.46-.08.89-.24,1.29-.16.4-.39.75-.69,1.05-.3.3-.68.53-1.12.7-.44.17-.95.26-1.51.26-.31,0-.62-.03-.95-.1-.32-.06-.63-.15-.93-.27-.3-.12-.58-.25-.85-.41s-.49-.34-.69-.53l.68-1.08c.05-.08.12-.15.21-.2.09-.05.19-.08.29-.08.14,0,.27.04.41.13.14.09.3.18.47.29.17.1.38.2.6.29.23.09.5.13.81.13.42,0,.74-.09.98-.28.23-.18.35-.48.35-.88,0-.23-.06-.42-.19-.57-.13-.15-.29-.27-.5-.36s-.44-.18-.71-.25c-.26-.07-.53-.15-.81-.24-.28-.09-.55-.2-.81-.33-.26-.13-.5-.3-.71-.51-.21-.21-.37-.48-.5-.79-.13-.32-.19-.71-.19-1.17,0-.37.07-.74.22-1.09.15-.36.37-.67.66-.95s.65-.5,1.07-.67c.42-.17.91-.25,1.45-.25.3,0,.6.02.89.07s.56.12.82.21c.26.09.5.21.73.33.22.13.43.28.6.44l-.57,1.07Z"/>
    <path class="cls-2" d="m75.12,20.76c-.07.11-.14.19-.21.25s-.17.08-.29.08c-.1,0-.22-.03-.34-.1-.12-.07-.26-.14-.41-.22s-.33-.16-.52-.22c-.2-.07-.42-.1-.67-.1-.43,0-.75.09-.97.28-.21.18-.32.43-.32.75,0,.2.06.37.19.5.13.13.29.25.5.34s.44.18.71.26c.27.08.54.17.82.27s.55.21.82.34c.27.13.5.3.71.5.21.21.37.45.5.75.13.29.19.65.19,1.06,0,.46-.08.89-.24,1.29-.16.4-.39.75-.69,1.05-.3.3-.68.53-1.12.7-.44.17-.95.26-1.51.26-.31,0-.62-.03-.95-.1-.32-.06-.63-.15-.93-.27-.3-.12-.58-.25-.85-.41s-.49-.34-.69-.53l.68-1.08c.05-.08.12-.15.21-.2.09-.05.19-.08.29-.08.14,0,.27.04.41.13.14.09.3.18.47.29.17.1.38.2.6.29.23.09.5.13.81.13.42,0,.74-.09.98-.28.23-.18.35-.48.35-.88,0-.23-.06-.42-.19-.57-.13-.15-.29-.27-.5-.36s-.44-.18-.71-.25c-.26-.07-.53-.15-.81-.24-.28-.09-.55-.2-.81-.33-.26-.13-.5-.3-.71-.51-.21-.21-.37-.48-.5-.79-.13-.32-.19-.71-.19-1.17,0-.37.07-.74.22-1.09.15-.36.37-.67.66-.95s.65-.5,1.07-.67c.42-.17.91-.25,1.45-.25.3,0,.6.02.89.07s.56.12.82.21c.26.09.5.21.73.33.22.13.43.28.6.44l-.57,1.07Z"/>
  </g>
</svg>