<?xml version="1.0" encoding="UTF-8"?>
<svg id="Layer_1" data-name="Layer 1" xmlns="http://www.w3.org/2000/svg" viewBox="0 0 109.45 48">
  <defs>
    <style>
      .cls-1 {
        fill: #fff;
      }

      .cls-2 {
        fill: #f24e1e;
      }

      .cls-3 {
        fill: #a259ff;
      }

      .cls-4 {
        fill: #ff7262;
      }

      .cls-5 {
        fill: #1abcfe;
      }

      .cls-6 {
        fill: #0acf83;
      }
    </style>
  </defs>
  <rect width="109.45" height="48" rx="13.56" ry="13.56"/>
  <circle class="cls-1" cx="24.24" cy="24" r="15.86"/>
  <g>
    <path class="cls-1" d="m55.51,18.74v1.77h-4.08v2.52h3.4v1.78h-3.4v3.87h-2.32v-9.95h6.4Z"/>
    <path class="cls-1" d="m61.29,28.68h-2.32v-9.95h2.32v9.95Z"/>
    <path class="cls-1" d="m69.86,27.02c.32,0,.6-.03.85-.08.25-.05.48-.13.7-.22v-1.51h-.98c-.15,0-.26-.04-.34-.12-.08-.08-.12-.17-.12-.29v-1.27h3.54v4.2c-.26.19-.52.35-.8.48-.28.13-.57.24-.88.33-.31.09-.64.15-1,.19-.35.04-.73.06-1.14.06-.73,0-1.4-.13-2.02-.39-.62-.26-1.16-.61-1.61-1.06-.45-.45-.81-.99-1.07-1.61-.26-.62-.39-1.3-.39-2.02s.12-1.42.37-2.04c.25-.62.6-1.16,1.05-1.61.46-.45,1.01-.8,1.66-1.05.65-.25,1.37-.38,2.17-.38.41,0,.8.03,1.17.1.36.07.7.16,1.01.28s.59.26.84.42c.25.16.48.34.68.53l-.67,1.02c-.06.1-.14.17-.23.23-.09.05-.19.08-.29.08-.14,0-.28-.05-.42-.14-.18-.11-.35-.2-.52-.28-.16-.08-.33-.14-.5-.19-.17-.05-.35-.09-.53-.11-.19-.02-.4-.03-.63-.03-.43,0-.82.08-1.17.23-.35.15-.64.37-.88.65-.24.28-.43.61-.56,1-.13.39-.2.82-.2,1.3,0,.53.07,1,.22,1.41.15.41.35.76.6,1.04.26.28.56.5.92.65.35.15.74.22,1.16.22Z"/>
    <path class="cls-1" d="m82.29,24.67c.08.19.17.38.24.57.08-.2.16-.4.25-.58.09-.19.17-.37.27-.55l2.55-5.03c.04-.09.09-.15.14-.2s.1-.08.16-.11c.06-.02.12-.03.2-.03h2.02v9.94h-2.03v-5.72c0-.28.01-.58.04-.9l-2.63,5.11c-.08.16-.19.28-.33.36-.14.08-.3.12-.47.12h-.31c-.18,0-.34-.04-.47-.12-.14-.08-.25-.2-.33-.36l-2.65-5.12c.02.16.03.32.04.47,0,.16.01.3.01.43v5.72h-2.04v-9.94h2.02c.08,0,.14.01.2.03s.11.06.16.11c.05.05.09.11.14.2l2.56,5.05c.09.17.18.35.26.54Z"/>
    <path class="cls-1" d="m101.07,28.68h-1.79c-.2,0-.37-.05-.5-.14-.13-.09-.22-.21-.27-.36l-.59-1.73h-3.78l-.59,1.73c-.04.13-.13.24-.27.34-.13.1-.29.15-.48.15h-1.8l3.85-9.95h2.36l3.85,9.95Zm-6.39-3.8h2.72l-.91-2.72c-.06-.17-.13-.38-.21-.61s-.16-.49-.24-.76c-.07.28-.15.53-.23.77-.08.24-.15.44-.22.61l-.92,2.71Z"/>
  </g>
  <g>
    <path class="cls-6" d="m21.1,33.42c1.73,0,3.14-1.41,3.14-3.14v-3.14h-3.14c-1.73,0-3.14,1.41-3.14,3.14,0,1.73,1.41,3.14,3.14,3.14Z"/>
    <path class="cls-3" d="m17.96,24c0-1.73,1.41-3.14,3.14-3.14h3.14v6.28h-3.14c-1.73,0-3.14-1.41-3.14-3.14Z"/>
    <path class="cls-2" d="m17.96,17.72c0-1.73,1.4-3.14,3.14-3.14h3.14v6.28h-3.14c-1.73,0-3.14-1.41-3.14-3.14Z"/>
    <path class="cls-4" d="m24.24,14.58h3.14c1.73,0,3.14,1.41,3.14,3.14,0,1.73-1.41,3.14-3.14,3.14h-3.14v-6.28Z"/>
    <path class="cls-5" d="m30.53,24c0,1.73-1.41,3.14-3.14,3.14-1.73,0-3.14-1.41-3.14-3.14,0-1.73,1.41-3.14,3.14-3.14,1.73,0,3.14,1.41,3.14,3.14Z"/>
  </g>
</svg>