<?xml version="1.0" encoding="UTF-8"?>
<svg id="Layer_1" data-name="Layer 1" xmlns="http://www.w3.org/2000/svg" viewBox="0 0 100.33 48">
  <defs>
    <style>
      .cls-1 {
        fill: #fff;
      }

      .cls-2 {
        fill: #f16529;
      }

      .cls-3 {
        fill: #ebebeb;
      }

      .cls-4 {
        fill: #e44d26;
      }
    </style>
  </defs>
  <rect class="cls-2" width="100.33" height="48" rx="13.56" ry="13.56"/>
  <g>
    <path class="cls-1" d="m57.17,28.7h-2.32v-4.21h-4.04v4.21h-2.32v-9.95h2.32v4.16h4.04v-4.16h2.32v9.95Z"/>
    <path class="cls-1" d="m68.08,18.75v1.83h-2.8v8.12h-2.31v-8.12h-2.8v-1.83h7.9Z"/>
    <path class="cls-1" d="m76.43,24.69c.08.19.17.38.24.57.08-.2.16-.39.25-.58s.17-.37.27-.55l2.55-5.03c.05-.09.09-.15.14-.2s.1-.08.16-.11c.06-.02.13-.03.2-.03h2.02v9.94h-2.03v-5.72c0-.28.01-.58.04-.9l-2.63,5.11c-.08.16-.19.28-.33.36-.14.08-.3.12-.47.12h-.31c-.18,0-.34-.04-.47-.12s-.25-.2-.33-.36l-2.65-5.12c.02.16.03.32.04.47,0,.16.01.3.01.43v5.72h-2.03v-9.94h2.02c.08,0,.14.01.2.03.06.02.11.06.16.11s.09.12.14.2l2.56,5.05c.09.17.18.35.26.54Z"/>
    <path class="cls-1" d="m88.26,26.85h3.69v1.84h-5.99v-9.95h2.31v8.1Z"/>
  </g>
  <g>
    <circle class="cls-1" cx="24.24" cy="24.02" r="15.86"/>
    <g>
      <path class="cls-4" d="m17.45,31.55l-1.51-16.96h16.61l-1.51,16.95-6.8,1.89-6.78-1.88Z"/>
      <path class="cls-2" d="m29.74,30.47l1.29-14.49h-6.79v16.01l5.5-1.52Z"/>
      <path class="cls-3" d="m24.24,18.06h-5.21l.56,6.29h4.65v-2.08h-2.75l-.19-2.13h2.94v-2.08h0Zm0,9.6h0s-2.32-.62-2.32-.62l-.15-1.66h-2.09l.29,3.27,4.26,1.18h0v-2.16Z"/>
      <path class="cls-1" d="m24.24,24.35h2.56l-.24,2.7-2.32.63v2.16l4.26-1.18.57-6.39h-4.83v2.08Zm5.15-5.73l.05-.56h-5.21v2.08h5.02l.04-.47.1-1.05Z"/>
    </g>
  </g>
</svg>