<?xml version="1.0" encoding="UTF-8"?>
<svg id="Layer_1" data-name="Layer 1" xmlns="http://www.w3.org/2000/svg" viewBox="0 0 154.66 48">
  <defs>
    <style>
      .cls-1 {
        fill: #fff;
      }

      .cls-2 {
        fill: #f7df1e;
      }
    </style>
  </defs>
  <rect class="cls-2" width="154.66" height="48" rx="13.56" ry="13.56"/>
  <circle class="cls-1" cx="24.24" cy="23.97" r="15.86"/>
  <g>
    <path class="cls-2" d="m14.79,14.52h18.91v18.91H14.79V14.52Z"/>
    <path d="m27.49,29.29c.38.62.88,1.08,1.75,1.08.74,0,1.21-.37,1.21-.88,0-.61-.48-.83-1.29-1.18l-.44-.19c-1.28-.55-2.13-1.23-2.13-2.68,0-1.33,1.02-2.35,2.6-2.35,1.13,0,1.94.39,2.53,1.42l-1.38.89c-.3-.55-.63-.76-1.14-.76s-.85.33-.85.76c0,.53.33.75,1.09,1.08l.44.19c1.51.65,2.36,1.31,2.36,2.79,0,1.6-1.26,2.48-2.95,2.48s-2.72-.79-3.24-1.82l1.44-.84h0Zm-6.28.15c.28.5.53.91,1.14.91s.95-.23.95-1.12v-6.04h1.78v6.07c0,1.84-1.08,2.68-2.65,2.68-1.42,0-2.25-.74-2.67-1.62l1.45-.88h0Z"/>
  </g>
  <g>
    <path d="m53.34,25.08c0,.56-.07,1.06-.21,1.52s-.35.84-.63,1.17c-.28.33-.63.58-1.05.76-.42.18-.92.27-1.5.27-.26,0-.51-.01-.77-.04s-.52-.07-.79-.14l.12-1.34c0-.12.06-.21.14-.29.08-.07.2-.11.35-.11.08,0,.17.01.29.04.11.02.25.04.41.04.22,0,.42-.03.58-.09s.3-.16.41-.31c.11-.14.19-.33.25-.56.05-.23.08-.52.08-.86v-6.39h2.31v6.34Z"/>
    <path d="m65.94,28.68h-1.79c-.2,0-.37-.05-.5-.14-.13-.09-.22-.21-.27-.36l-.59-1.73h-3.78l-.59,1.73c-.05.13-.13.24-.27.34-.13.1-.29.15-.48.15h-1.8l3.85-9.95h2.36l3.85,9.95Zm-6.39-3.8h2.72l-.91-2.72c-.06-.17-.13-.38-.21-.61-.08-.23-.16-.49-.24-.76-.07.28-.15.54-.22.77-.08.24-.15.44-.22.61l-.92,2.71Z"/>
    <path d="m66.61,18.74h1.86c.2,0,.36.05.49.14.13.09.22.21.27.36l1.93,5.33c.09.23.17.48.26.76.09.27.17.56.25.86.06-.3.14-.59.22-.86.08-.27.17-.53.25-.76l1.91-5.33c.05-.13.13-.24.27-.34.13-.1.29-.15.48-.15h1.87l-3.99,9.95h-2.09l-3.99-9.95Z"/>
    <path d="m87.43,28.68h-1.79c-.2,0-.37-.05-.5-.14-.13-.09-.22-.21-.27-.36l-.59-1.73h-3.78l-.59,1.73c-.05.13-.13.24-.27.34-.13.1-.29.15-.48.15h-1.8l3.85-9.95h2.36l3.85,9.95Zm-6.39-3.8h2.72l-.91-2.72c-.06-.17-.13-.38-.21-.61-.08-.23-.16-.49-.24-.76-.07.28-.15.54-.22.77-.08.24-.15.44-.22.61l-.92,2.71Z"/>
    <path d="m95.83,20.76c-.07.11-.14.19-.21.25s-.17.08-.29.08c-.1,0-.22-.03-.34-.1-.12-.07-.26-.14-.41-.22s-.33-.16-.52-.22c-.2-.07-.42-.1-.67-.1-.43,0-.75.09-.97.28-.21.18-.32.43-.32.75,0,.2.06.37.19.5.13.13.29.25.5.34s.44.18.71.26c.27.08.54.17.82.27s.55.21.82.34c.27.13.5.3.71.5.21.21.37.45.5.75.13.29.19.65.19,1.06,0,.46-.08.89-.24,1.29-.16.4-.39.75-.69,1.05-.3.3-.68.53-1.12.7-.44.17-.95.26-1.51.26-.31,0-.62-.03-.95-.1-.32-.06-.63-.15-.93-.27-.3-.12-.58-.25-.85-.41s-.49-.34-.69-.53l.68-1.08c.05-.08.12-.15.21-.2.09-.05.19-.08.29-.08.14,0,.27.04.41.13.14.09.3.18.47.29.17.1.38.2.6.29.23.09.5.13.81.13.42,0,.74-.09.98-.28.23-.18.35-.48.35-.88,0-.23-.06-.42-.19-.57-.13-.15-.29-.27-.5-.36s-.44-.18-.71-.25c-.26-.07-.53-.15-.81-.24-.28-.09-.55-.2-.81-.33-.26-.13-.5-.3-.71-.51-.21-.21-.37-.48-.5-.79-.13-.32-.19-.71-.19-1.17,0-.37.07-.74.22-1.09.15-.36.37-.67.66-.95s.65-.5,1.07-.67c.42-.17.91-.25,1.45-.25.3,0,.6.02.89.07s.56.12.82.21c.26.09.5.21.73.33.22.13.43.28.6.44l-.57,1.07Z"/>
    <path d="m106.42,26.11c.05,0,.11.01.16.03s.11.06.16.11l.92.96c-.4.52-.9.92-1.5,1.18-.6.27-1.32.4-2.14.4-.75,0-1.43-.13-2.03-.39-.6-.26-1.11-.61-1.52-1.07-.42-.45-.74-.99-.96-1.61-.22-.62-.33-1.3-.33-2.02s.13-1.42.38-2.04c.25-.62.61-1.16,1.07-1.61.46-.45,1-.8,1.64-1.05.64-.25,1.34-.38,2.11-.38.37,0,.72.03,1.05.1.33.07.64.16.92.27s.55.25.79.42c.24.16.46.34.64.54l-.78,1.04c-.05.06-.11.12-.18.17-.07.05-.16.08-.29.08-.08,0-.16-.02-.23-.05-.07-.04-.15-.08-.23-.13-.08-.05-.17-.11-.27-.17-.1-.06-.21-.12-.35-.17-.13-.05-.29-.1-.47-.13-.18-.04-.39-.05-.63-.05-.42,0-.8.07-1.15.22-.35.15-.64.36-.89.63s-.44.61-.58,1-.21.83-.21,1.32.07.96.21,1.36.33.73.57,1c.24.27.52.48.84.62.32.14.66.21,1.02.21.21,0,.4,0,.57-.03s.33-.06.48-.11c.15-.05.29-.12.42-.2.13-.08.27-.18.41-.3.05-.04.11-.08.18-.11s.13-.04.2-.04Z"/>
    <path d="m113.06,25v3.68h-2.31v-9.95h3.24c.72,0,1.33.07,1.84.22.51.15.92.35,1.24.62.32.26.55.58.7.94.15.36.22.75.22,1.17,0,.32-.04.63-.13.92-.09.29-.21.55-.39.79-.17.24-.38.46-.63.65-.25.19-.53.35-.86.47.15.08.3.17.43.29.13.11.25.25.35.42l2.12,3.46h-2.09c-.39,0-.67-.15-.83-.44l-1.65-2.89c-.07-.13-.16-.22-.26-.27s-.24-.08-.41-.08h-.59Zm0-1.59h.93c.31,0,.58-.04.8-.12.22-.08.4-.19.54-.33s.24-.31.31-.5c.06-.19.1-.39.1-.61,0-.44-.14-.78-.43-1.02-.28-.25-.72-.37-1.32-.37h-.93v2.95Z"/>
    <path d="m124.4,28.68h-2.32v-9.95h2.32v9.95Z"/>
    <path d="m130.6,25.36v3.32h-2.31v-9.95h3.51c.7,0,1.3.08,1.81.25s.92.4,1.24.69.57.63.72,1.03c.15.4.23.82.23,1.28,0,.5-.08.95-.24,1.37-.16.42-.4.77-.73,1.07-.33.3-.74.53-1.25.69-.5.17-1.1.25-1.79.25h-1.2Zm0-1.74h1.2c.6,0,1.03-.14,1.3-.43.26-.29.4-.69.4-1.2,0-.23-.03-.43-.1-.62s-.17-.35-.31-.48c-.14-.13-.31-.24-.53-.31-.21-.07-.46-.11-.75-.11h-1.2v3.15Z"/>
    <path d="m146.27,18.74v1.83h-2.8v8.12h-2.31v-8.12h-2.8v-1.83h7.91Z"/>
  </g>
</svg>