<?xml version="1.0" encoding="UTF-8"?>
<svg id="Layer_1" data-name="Layer 1" xmlns="http://www.w3.org/2000/svg" viewBox="0 0 124.21 48">
  <defs>
    <style>
      .cls-1 {
        fill: #fff;
      }

      .cls-2 {
        fill: #8cc84b;
      }

      .cls-3 {
        fill: #83cd29;
      }

      .cls-4 {
        fill: #404137;
      }
    </style>
  </defs>
  <rect class="cls-3" width="124.21" height="48" rx="13.56" ry="13.56"/>
  <circle class="cls-1" cx="24.24" cy="24" r="15.86"/>
  <g>
    <path class="cls-4" d="m50.58,18.75c.07,0,.13.03.18.05.05.02.11.06.16.11.05.05.11.11.17.18l4.72,5.97c-.02-.19-.03-.38-.04-.56s-.01-.35-.01-.51v-5.26h2.03v9.95h-1.2c-.18,0-.33-.03-.45-.08-.12-.05-.24-.15-.35-.3l-4.69-5.93c.01.17.02.34.03.51,0,.17.01.32.01.47v5.33h-2.03v-9.95h1.21c.1,0,.18,0,.25.01Z"/>
    <path class="cls-4" d="m71.29,23.7c0,.72-.12,1.39-.37,2.01-.25.62-.6,1.16-1.05,1.61-.45.46-.99.82-1.63,1.08s-1.34.39-2.11.39-1.48-.13-2.12-.39c-.64-.26-1.18-.62-1.63-1.08-.45-.46-.8-1-1.05-1.61-.25-.62-.37-1.29-.37-2.01s.12-1.39.37-2.01c.25-.62.6-1.16,1.05-1.61.45-.46,1-.81,1.63-1.07.64-.26,1.34-.39,2.12-.39s1.48.13,2.11.39,1.18.62,1.63,1.08c.45.46.8.99,1.05,1.61.25.62.37,1.29.37,2Zm-2.36,0c0-.49-.06-.93-.19-1.33-.13-.39-.31-.73-.55-1-.24-.27-.53-.48-.88-.63s-.74-.22-1.18-.22-.84.07-1.19.22c-.35.15-.64.35-.88.63-.24.27-.42.61-.55,1-.13.39-.19.84-.19,1.33s.06.94.19,1.33c.13.39.31.73.55,1,.24.27.53.48.88.62.35.14.75.21,1.19.21s.83-.07,1.18-.21c.35-.14.64-.35.88-.62.24-.27.42-.61.55-1,.13-.39.19-.84.19-1.33Z"/>
    <path class="cls-4" d="m83.47,23.7c0,.72-.12,1.38-.37,1.99-.25.61-.6,1.13-1.05,1.58-.45.44-.99.79-1.63,1.04-.63.25-1.34.37-2.11.37h-3.86v-9.95h3.86c.77,0,1.48.12,2.11.38.64.25,1.18.6,1.63,1.04.45.44.8.97,1.05,1.57.25.61.37,1.27.37,1.98Zm-2.36,0c0-.49-.06-.94-.19-1.33-.13-.4-.31-.73-.55-1.01-.24-.28-.53-.49-.88-.63s-.74-.22-1.18-.22h-1.54v6.4h1.54c.44,0,.83-.07,1.18-.22s.64-.36.88-.63c.24-.28.42-.61.55-1.01.13-.4.19-.84.19-1.34Z"/>
    <path class="cls-4" d="m93.03,18.74v1.77h-4.08v2.32h3.13v1.71h-3.13v2.37h4.08v1.77h-6.4v-9.95h6.4Z"/>
    <path class="cls-4" d="m95.98,27.61c0-.16.03-.32.09-.46.06-.14.15-.26.25-.37.11-.1.23-.19.38-.25s.3-.09.48-.09.33.03.47.09.27.14.38.25c.11.1.19.23.26.37.06.14.09.29.09.46s-.03.32-.09.46c-.06.14-.15.27-.26.37-.11.1-.24.19-.38.25s-.3.09-.47.09-.33-.03-.48-.09-.27-.14-.38-.25c-.11-.1-.19-.23-.25-.37-.06-.14-.09-.3-.09-.46Z"/>
    <path class="cls-4" d="m105.89,25.08c0,.56-.07,1.06-.21,1.52s-.35.85-.63,1.17c-.28.33-.63.58-1.05.76-.42.18-.92.27-1.5.27-.26,0-.52-.01-.77-.04-.25-.03-.51-.07-.79-.14l.12-1.34c0-.12.06-.21.14-.29s.2-.11.35-.11c.08,0,.17.01.29.04.11.02.25.04.41.04.22,0,.42-.03.58-.09s.3-.16.41-.31c.11-.14.19-.33.25-.56.05-.23.08-.52.08-.86v-6.39h2.31v6.34Z"/>
    <path class="cls-4" d="m115.12,20.76c-.07.11-.14.19-.21.25s-.17.08-.29.08c-.1,0-.22-.03-.34-.1-.12-.07-.26-.14-.41-.22s-.33-.16-.52-.22c-.2-.07-.42-.1-.67-.1-.43,0-.75.09-.97.28-.21.18-.32.43-.32.75,0,.2.06.37.19.5.13.13.29.25.5.34.21.1.44.18.71.26s.54.17.82.27.55.21.82.34c.27.13.5.3.71.5.21.21.37.45.5.75.13.29.19.65.19,1.06,0,.46-.08.89-.24,1.29-.16.4-.39.75-.69,1.05-.3.3-.68.53-1.12.7-.44.17-.95.26-1.51.26-.31,0-.62-.03-.95-.1-.32-.06-.63-.15-.93-.27-.3-.12-.58-.25-.85-.41s-.49-.34-.69-.53l.68-1.08c.05-.08.12-.15.21-.2.09-.05.19-.08.29-.08.14,0,.27.04.41.13s.3.18.47.29c.17.1.38.2.6.29.23.09.5.13.81.13.42,0,.74-.09.98-.28.23-.18.35-.48.35-.88,0-.23-.06-.42-.19-.57-.13-.15-.29-.27-.5-.36s-.44-.18-.71-.25-.53-.15-.81-.24c-.28-.09-.55-.2-.81-.33-.26-.13-.5-.3-.71-.51-.21-.21-.37-.48-.5-.79-.13-.32-.19-.71-.19-1.17,0-.37.07-.74.22-1.09s.37-.67.66-.95c.29-.28.65-.5,1.07-.67.42-.17.91-.25,1.45-.25.3,0,.6.02.89.07s.56.12.82.21c.26.09.5.21.73.33.22.13.43.28.6.44l-.57,1.07Z"/>
  </g>
  <path class="cls-2" d="m23.45,14.74c.47-.27,1.08-.27,1.54,0l7.09,4c.44.25.74.74.74,1.25v8.01c0,.53-.32,1.04-.79,1.28l-7.05,3.98c-.49.27-1.09.25-1.57-.04l-2.12-1.22c-.14-.09-.31-.15-.41-.29.09-.12.25-.14.38-.19.29-.09.56-.24.83-.39.07-.05.15-.03.22.01l1.8,1.04c.13.07.26-.02.37-.09l6.92-3.91c.09-.04.13-.13.13-.23v-7.93c0-.11-.05-.2-.15-.25l-7.03-3.96c-.08-.06-.19-.06-.28,0l-7.02,3.97c-.09.04-.16.14-.15.25v7.93c0,.09.04.18.13.22l1.88,1.06c.35.19.79.3,1.17.16.35-.13.58-.46.58-.84v-7.89c0-.12.1-.21.22-.2h.9c.12,0,.21.12.2.24v7.94c0,.7-.29,1.47-.94,1.82-.8.42-1.8.33-2.59-.07l-2.02-1.12c-.47-.24-.79-.75-.79-1.28v-8.01c0-.53.3-1.02.76-1.27l7.05-3.98Zm2.04,5.55c1.02-.06,2.12-.04,3.04.47.71.39,1.11,1.2,1.12,1.99-.02.11-.13.17-.23.16-.3,0-.59,0-.89,0-.13,0-.2-.11-.22-.22-.09-.38-.29-.76-.65-.94-.55-.27-1.18-.26-1.78-.26-.44.02-.91.06-1.28.32-.28.19-.37.59-.27.9.09.23.36.3.57.37,1.24.32,2.54.3,3.76.72.5.17.99.51,1.16,1.04.22.7.13,1.55-.37,2.11-.41.47-1,.71-1.59.86-.79.18-1.6.18-2.4.1-.75-.09-1.53-.28-2.11-.79-.49-.43-.74-1.1-.71-1.74,0-.11.11-.19.22-.18h.89c.12,0,.21.09.21.21.06.36.19.74.51.95.61.39,1.37.37,2.07.38.58-.03,1.23-.03,1.7-.42.25-.22.32-.58.26-.89-.07-.26-.36-.39-.59-.47-1.22-.39-2.54-.25-3.75-.68-.49-.17-.96-.5-1.15-1-.26-.71-.14-1.59.41-2.14.53-.54,1.32-.75,2.06-.83h.01Z"/>
</svg>