<?xml version="1.0" encoding="UTF-8"?>
<svg id="Layer_1" data-name="Layer 1" xmlns="http://www.w3.org/2000/svg" viewBox="0 0 107.7 48">
  <defs>
    <style>
      .cls-1 {
        fill: #fff;
      }

      .cls-2 {
        fill: #00d8ff;
      }

      .cls-3 {
        fill: none;
        stroke: #00d8ff;
        stroke-miterlimit: 10;
        stroke-width: .84px;
      }
    </style>
  </defs>
  <rect class="cls-2" width="107.7" height="48" rx="13.56" ry="13.56"/>
  <g>
    <path class="cls-1" d="m50.8,25v3.68h-2.31v-9.95h3.24c.72,0,1.33.07,1.84.22.51.15.92.35,1.24.62.32.26.55.58.7.94.15.36.22.75.22,1.17,0,.32-.04.63-.13.92s-.21.55-.39.79c-.17.24-.38.46-.63.65s-.53.35-.86.47c.15.08.3.17.43.29.13.11.25.25.35.42l2.12,3.46h-2.09c-.39,0-.66-.15-.83-.44l-1.65-2.89c-.07-.13-.16-.22-.26-.27-.1-.05-.24-.08-.41-.08h-.59Zm0-1.59h.93c.31,0,.58-.04.8-.12.22-.08.4-.19.54-.33.14-.14.24-.31.31-.5.06-.19.1-.39.1-.61,0-.44-.14-.78-.43-1.02-.28-.25-.72-.37-1.32-.37h-.93v2.95Z"/>
    <path class="cls-1" d="m66.02,18.74v1.77h-4.08v2.32h3.13v1.71h-3.13v2.37h4.08v1.77h-6.4v-9.95h6.4Z"/>
    <path class="cls-1" d="m78.63,28.68h-1.79c-.2,0-.37-.05-.5-.14-.13-.09-.22-.21-.27-.36l-.59-1.73h-3.78l-.59,1.73c-.05.13-.13.24-.27.34-.13.1-.29.15-.48.15h-1.8l3.85-9.95h2.36l3.85,9.95Zm-6.39-3.8h2.72l-.91-2.72c-.06-.17-.13-.38-.21-.61s-.16-.49-.24-.76c-.07.28-.15.53-.23.77-.08.24-.15.44-.22.61l-.92,2.71Z"/>
    <path class="cls-1" d="m87.76,26.11c.05,0,.11,0,.16.03s.11.06.16.11l.92.96c-.4.52-.9.92-1.51,1.18-.6.27-1.32.4-2.14.4-.76,0-1.43-.13-2.03-.39s-1.11-.61-1.52-1.06c-.42-.45-.74-.99-.96-1.61-.22-.62-.33-1.3-.33-2.02s.13-1.42.38-2.04.61-1.16,1.07-1.61c.46-.45,1-.8,1.64-1.05.64-.25,1.34-.38,2.11-.38.37,0,.72.03,1.05.1.33.07.64.16.93.27.29.12.55.25.79.42.24.16.46.34.64.54l-.78,1.04c-.05.06-.11.12-.18.17-.07.05-.16.08-.29.08-.08,0-.16-.02-.23-.05-.07-.04-.15-.08-.23-.13-.08-.05-.17-.11-.27-.17s-.21-.12-.35-.17c-.13-.05-.29-.1-.47-.13-.18-.04-.39-.05-.63-.05-.42,0-.8.07-1.15.22-.35.15-.64.36-.89.63s-.44.61-.58,1c-.14.39-.21.83-.21,1.32s.07.96.21,1.36c.14.4.33.73.57,1,.24.27.52.48.84.62.32.14.66.21,1.02.21.21,0,.4-.01.57-.03s.33-.06.48-.11.29-.12.42-.19c.13-.08.27-.18.41-.3.05-.05.11-.08.18-.11.06-.03.13-.04.2-.04Z"/>
    <path class="cls-1" d="m99.32,18.74v1.83h-2.8v8.12h-2.31v-8.12h-2.8v-1.83h7.9Z"/>
  </g>
  <g>
    <circle class="cls-1" cx="24.24" cy="24" r="15.86"/>
    <g>
      <circle class="cls-2" cx="24.24" cy="23.98" r="1.76"/>
      <g>
        <path class="cls-3" d="m24.24,20.4c2.37,0,4.57.34,6.23.91,2,.69,3.23,1.73,3.23,2.68s-1.3,2.09-3.45,2.8c-1.62.54-3.76.82-6.01.82s-4.49-.26-6.13-.82c-2.08-.71-3.33-1.83-3.33-2.8s1.17-1.97,3.14-2.66c1.67-.58,3.92-.93,6.31-.93h0Z"/>
        <path class="cls-3" d="m21.12,22.2c1.18-2.05,2.58-3.79,3.9-4.94,1.59-1.39,3.11-1.93,3.93-1.46.85.49,1.16,2.17.71,4.39-.34,1.67-1.17,3.67-2.29,5.61-1.15,2-2.47,3.76-3.78,4.9-1.65,1.44-3.25,1.97-4.09,1.48-.81-.47-1.12-2-.73-4.05.33-1.73,1.15-3.86,2.35-5.93h0Z"/>
        <path class="cls-3" d="m21.12,25.81c-1.19-2.05-1.99-4.12-2.33-5.85-.41-2.08-.12-3.66.7-4.13.85-.49,2.46.08,4.15,1.58,1.28,1.14,2.59,2.84,3.72,4.79,1.16,2,2.02,4.02,2.36,5.72.43,2.15.08,3.8-.75,4.28-.81.47-2.29-.03-3.88-1.39-1.34-1.15-2.77-2.93-3.97-5h0Z"/>
      </g>
    </g>
  </g>
</svg>