<?xml version="1.0" encoding="utf-8"?>
<!-- Generator: Adobe Illustrator 27.2.0, SVG Export Plug-In . SVG Version: 6.00 Build 0)  -->
<svg version="1.1" id="Layer_1" xmlns="http://www.w3.org/2000/svg" xmlns:xlink="http://www.w3.org/1999/xlink" x="0px" y="0px"
	 viewBox="0 0 94.8 48" style="enable-background:new 0 0 94.8 48;" xml:space="preserve">
<style type="text/css">
	.st0{fill-rule:evenodd;clip-rule:evenodd;fill:#FFFFFF;}
	.st1{fill-rule:evenodd;clip-rule:evenodd;fill:#2383AE;}
	.st2{fill:#FFFFFF;}
	.st3{fill-rule:evenodd;clip-rule:evenodd;fill:url(#SVGID_1_);}
	.st4{fill-rule:evenodd;clip-rule:evenodd;fill:#00D8FF;}
	.st5{fill:none;stroke:#00D8FF;stroke-width:0.8441;stroke-miterlimit:10;}
	.st6{fill-rule:evenodd;clip-rule:evenodd;fill:#F16529;}
	.st7{fill:#E44D26;}
	.st8{fill:#F16529;}
	.st9{fill:#EBEBEB;}
	.st10{fill-rule:evenodd;clip-rule:evenodd;fill:#2965F1;}
	.st11{fill:#264DE4;}
	.st12{fill:#2965F1;}
	.st13{fill-rule:evenodd;clip-rule:evenodd;fill:#CF649A;}
	.st14{fill-rule:evenodd;clip-rule:evenodd;fill:#83CD29;}
	.st15{fill:#404137;}
	.st16{fill-rule:evenodd;clip-rule:evenodd;}
	.st17{fill-rule:evenodd;clip-rule:evenodd;fill:#F7DF1E;}
	.st18{fill:#F7DF1E;}
	.st19{fill-rule:evenodd;clip-rule:evenodd;fill:#B52E31;}
	.st20{fill:#E23237;}
	.st21{fill:#B52E31;}
	.st22{fill-rule:evenodd;clip-rule:evenodd;fill:#42B883;}
	.st23{fill:#42B883;}
	.st24{fill:#35495E;}
	.st25{fill-rule:evenodd;clip-rule:evenodd;fill:#6610F2;}
	.st26{fill:url(#SVGID_00000157287222520559764360000013604447036499461506_);}
	.st27{fill:url(#SVGID_00000137834859719663891330000013662614823619872677_);stroke:#FFFFFF;stroke-width:3.694284e-02;}
	.st28{fill:#0ACF83;}
	.st29{fill:#A259FF;}
	.st30{fill:#F24E1E;}
	.st31{fill:#FF7262;}
	.st32{fill:#1ABCFE;}
	.st33{fill:#8CC84B;}
	.st34{fill:#CF649A;}
</style>
<path class="st13" d="M81.2,48H13.6C6.1,48,0,41.9,0,34.4V13.6C0,6.1,6.1,0,13.6,0h67.6c7.5,0,13.6,6.1,13.6,13.6v20.9
	C94.8,41.9,88.7,48,81.2,48z"/>
<circle class="st2" cx="24.2" cy="24" r="15.9"/>
<g>
	<path class="st2" d="M54.7,20.8c-0.1,0.1-0.1,0.2-0.2,0.2s-0.2,0.1-0.3,0.1c-0.1,0-0.2,0-0.3-0.1c-0.1-0.1-0.3-0.1-0.4-0.2
		s-0.3-0.2-0.5-0.2s-0.4-0.1-0.7-0.1c-0.4,0-0.8,0.1-1,0.3c-0.2,0.2-0.3,0.4-0.3,0.7c0,0.2,0.1,0.4,0.2,0.5c0.1,0.1,0.3,0.2,0.5,0.3
		c0.2,0.1,0.4,0.2,0.7,0.3c0.3,0.1,0.5,0.2,0.8,0.3c0.3,0.1,0.5,0.2,0.8,0.3s0.5,0.3,0.7,0.5c0.2,0.2,0.4,0.5,0.5,0.7
		c0.1,0.3,0.2,0.6,0.2,1.1c0,0.5-0.1,0.9-0.2,1.3c-0.2,0.4-0.4,0.8-0.7,1c-0.3,0.3-0.7,0.5-1.1,0.7c-0.4,0.2-0.9,0.3-1.5,0.3
		c-0.3,0-0.6,0-0.9-0.1c-0.3-0.1-0.6-0.2-0.9-0.3c-0.3-0.1-0.6-0.3-0.8-0.4c-0.3-0.2-0.5-0.3-0.7-0.5l0.7-1.1c0-0.1,0.1-0.1,0.2-0.2
		c0.1,0,0.2-0.1,0.3-0.1c0.1,0,0.3,0,0.4,0.1s0.3,0.2,0.5,0.3c0.2,0.1,0.4,0.2,0.6,0.3c0.2,0.1,0.5,0.1,0.8,0.1c0.4,0,0.7-0.1,1-0.3
		c0.2-0.2,0.3-0.5,0.3-0.9c0-0.2-0.1-0.4-0.2-0.6c-0.1-0.1-0.3-0.3-0.5-0.4s-0.4-0.2-0.7-0.3c-0.3-0.1-0.5-0.2-0.8-0.2
		c-0.3-0.1-0.5-0.2-0.8-0.3c-0.3-0.1-0.5-0.3-0.7-0.5c-0.2-0.2-0.4-0.5-0.5-0.8c-0.1-0.3-0.2-0.7-0.2-1.2c0-0.4,0.1-0.7,0.2-1.1
		s0.4-0.7,0.7-0.9c0.3-0.3,0.6-0.5,1.1-0.7c0.4-0.2,0.9-0.2,1.5-0.2c0.3,0,0.6,0,0.9,0.1s0.6,0.1,0.8,0.2c0.3,0.1,0.5,0.2,0.7,0.3
		c0.2,0.1,0.4,0.3,0.6,0.4L54.7,20.8z"/>
	<path class="st2" d="M67.8,28.7H66c-0.2,0-0.4,0-0.5-0.1c-0.1-0.1-0.2-0.2-0.3-0.4l-0.6-1.7h-3.8l-0.6,1.7c0,0.1-0.1,0.2-0.3,0.3
		c-0.1,0.1-0.3,0.2-0.5,0.2h-1.8l3.8-9.9H64L67.8,28.7z M61.4,24.9h2.7l-0.9-2.7c-0.1-0.2-0.1-0.4-0.2-0.6c-0.1-0.2-0.2-0.5-0.2-0.8
		c-0.1,0.3-0.1,0.5-0.2,0.8c-0.1,0.2-0.2,0.4-0.2,0.6L61.4,24.9z"/>
	<path class="st2" d="M76.2,20.8c-0.1,0.1-0.1,0.2-0.2,0.2s-0.2,0.1-0.3,0.1c-0.1,0-0.2,0-0.3-0.1c-0.1-0.1-0.3-0.1-0.4-0.2
		s-0.3-0.2-0.5-0.2c-0.2-0.1-0.4-0.1-0.7-0.1c-0.4,0-0.8,0.1-1,0.3c-0.2,0.2-0.3,0.4-0.3,0.7c0,0.2,0.1,0.4,0.2,0.5
		c0.1,0.1,0.3,0.2,0.5,0.3c0.2,0.1,0.4,0.2,0.7,0.3s0.5,0.2,0.8,0.3s0.5,0.2,0.8,0.3c0.3,0.1,0.5,0.3,0.7,0.5
		c0.2,0.2,0.4,0.5,0.5,0.7c0.1,0.3,0.2,0.6,0.2,1.1c0,0.5-0.1,0.9-0.2,1.3c-0.2,0.4-0.4,0.8-0.7,1c-0.3,0.3-0.7,0.5-1.1,0.7
		c-0.4,0.2-0.9,0.3-1.5,0.3c-0.3,0-0.6,0-0.9-0.1c-0.3-0.1-0.6-0.2-0.9-0.3c-0.3-0.1-0.6-0.3-0.8-0.4s-0.5-0.3-0.7-0.5l0.7-1.1
		c0-0.1,0.1-0.1,0.2-0.2c0.1,0,0.2-0.1,0.3-0.1c0.1,0,0.3,0,0.4,0.1s0.3,0.2,0.5,0.3c0.2,0.1,0.4,0.2,0.6,0.3
		c0.2,0.1,0.5,0.1,0.8,0.1c0.4,0,0.7-0.1,1-0.3c0.2-0.2,0.3-0.5,0.3-0.9c0-0.2-0.1-0.4-0.2-0.6c-0.1-0.1-0.3-0.3-0.5-0.4
		s-0.4-0.2-0.7-0.3s-0.5-0.2-0.8-0.2c-0.3-0.1-0.5-0.2-0.8-0.3c-0.3-0.1-0.5-0.3-0.7-0.5c-0.2-0.2-0.4-0.5-0.5-0.8
		c-0.1-0.3-0.2-0.7-0.2-1.2c0-0.4,0.1-0.7,0.2-1.1s0.4-0.7,0.7-0.9c0.3-0.3,0.6-0.5,1.1-0.7c0.4-0.2,0.9-0.2,1.5-0.2
		c0.3,0,0.6,0,0.9,0.1s0.6,0.1,0.8,0.2c0.3,0.1,0.5,0.2,0.7,0.3c0.2,0.1,0.4,0.3,0.6,0.4L76.2,20.8z"/>
	<path class="st2" d="M85.7,20.8c-0.1,0.1-0.1,0.2-0.2,0.2s-0.2,0.1-0.3,0.1c-0.1,0-0.2,0-0.3-0.1c-0.1-0.1-0.3-0.1-0.4-0.2
		s-0.3-0.2-0.5-0.2s-0.4-0.1-0.7-0.1c-0.4,0-0.8,0.1-1,0.3c-0.2,0.2-0.3,0.4-0.3,0.7c0,0.2,0.1,0.4,0.2,0.5c0.1,0.1,0.3,0.2,0.5,0.3
		c0.2,0.1,0.4,0.2,0.7,0.3c0.3,0.1,0.5,0.2,0.8,0.3c0.3,0.1,0.5,0.2,0.8,0.3s0.5,0.3,0.7,0.5c0.2,0.2,0.4,0.5,0.5,0.7
		c0.1,0.3,0.2,0.6,0.2,1.1c0,0.5-0.1,0.9-0.2,1.3c-0.2,0.4-0.4,0.8-0.7,1c-0.3,0.3-0.7,0.5-1.1,0.7c-0.4,0.2-0.9,0.3-1.5,0.3
		c-0.3,0-0.6,0-0.9-0.1c-0.3-0.1-0.6-0.2-0.9-0.3c-0.3-0.1-0.6-0.3-0.8-0.4c-0.3-0.2-0.5-0.3-0.7-0.5l0.7-1.1c0-0.1,0.1-0.1,0.2-0.2
		c0.1,0,0.2-0.1,0.3-0.1c0.1,0,0.3,0,0.4,0.1s0.3,0.2,0.5,0.3c0.2,0.1,0.4,0.2,0.6,0.3c0.2,0.1,0.5,0.1,0.8,0.1c0.4,0,0.7-0.1,1-0.3
		c0.2-0.2,0.3-0.5,0.3-0.9c0-0.2-0.1-0.4-0.2-0.6c-0.1-0.1-0.3-0.3-0.5-0.4s-0.4-0.2-0.7-0.3c-0.3-0.1-0.5-0.2-0.8-0.2
		c-0.3-0.1-0.5-0.2-0.8-0.3c-0.3-0.1-0.5-0.3-0.7-0.5c-0.2-0.2-0.4-0.5-0.5-0.8c-0.1-0.3-0.2-0.7-0.2-1.2c0-0.4,0.1-0.7,0.2-1.1
		s0.4-0.7,0.7-0.9c0.3-0.3,0.6-0.5,1.1-0.7c0.4-0.2,0.9-0.2,1.5-0.2c0.3,0,0.6,0,0.9,0.1s0.6,0.1,0.8,0.2c0.3,0.1,0.5,0.2,0.7,0.3
		c0.2,0.1,0.4,0.3,0.6,0.4L85.7,20.8z"/>
</g>
<sodipodi:namedview  bordercolor="#666666" borderopacity="1.0" fit-margin-bottom="0" fit-margin-left="0" fit-margin-right="0" fit-margin-top="0" id="base" pagecolor="#ffffff" showgrid="false" units="px">
	</sodipodi:namedview>
<sodipodi:namedview  bordercolor="#666666" borderopacity="1" gridtolerance="10" guidetolerance="10" id="namedview10" objecttolerance="10" pagecolor="#ffffff" showgrid="false">
	</sodipodi:namedview>
<path class="st34" d="M31.1,25c-0.7,0-1.2,0.2-1.7,0.4c-0.2-0.4-0.4-0.7-0.4-0.9c0-0.3-0.1-0.4,0-0.7c0-0.3,0.2-0.8,0.2-0.8
	c0,0,0-0.2-0.4-0.2S28,22.9,28,23c-0.1,0.2-0.1,0.4-0.2,0.6c-0.1,0.3-0.8,1.6-1.2,2.2c-0.1-0.3-0.2-0.5-0.3-0.7c0-0.3-0.1-0.4,0-0.7
	c0-0.3,0.2-0.8,0.2-0.8c0,0,0-0.2-0.4-0.2c-0.4,0-0.7,0.1-0.7,0.2c0,0.1-0.1,0.3-0.2,0.6c-0.1,0.2-1,2.3-1.2,2.8
	c-0.1,0.3-0.2,0.5-0.3,0.6s0,0,0,0l-0.1,0.2v0c-0.1,0.1-0.1,0.2-0.1,0.2c0,0-0.1-0.2,0-0.6c0.1-0.7,0.5-1.8,0.5-1.9
	c0,0,0.1-0.2-0.2-0.3c-0.3-0.1-0.4,0.1-0.4,0.1c0,0,0,0.1,0,0.1s0.3-1.3-0.6-1.3c-0.5,0-1.3,0.6-1.7,1.1l-1.9,1l0,0
	c-1.1-1.1-3-1.9-2.9-3.4c0-0.6,0.2-2,3.8-3.8c2.9-1.4,5.2-1,5.6-0.2c0.6,1.3-1.2,3.6-4.2,3.9c-1.1,0.1-1.7-0.3-1.9-0.5
	c-0.2-0.2-0.2-0.2-0.2-0.1c-0.1,0.1,0,0.2,0,0.3c0.1,0.2,0.5,0.6,1.1,0.9c0.6,0.2,1.9,0.3,3.5-0.3c1.8-0.7,3.2-2.7,2.8-4.3
	c-0.4-1.7-3.2-2.2-5.8-1.3c-1.6,0.6-3.2,1.4-4.4,2.6c-1.4,1.3-1.7,2.5-1.6,3c0.3,1.7,2.7,2.9,3.7,3.7l-0.1,0.1
	c-0.5,0.2-2.3,1.2-2.8,2.2c-0.5,1.1,0.1,2,0.5,2.1c1.2,0.3,2.5-0.3,3.2-1.3c0.7-1,0.6-2.3,0.3-2.9l0,0l0.4-0.2
	c0.2-0.1,0.5-0.3,0.7-0.4c-0.1,0.3-0.2,0.7-0.2,1.3c-0.1,0.7,0.2,1.5,0.6,1.8c0.2,0.1,0.3,0.1,0.5,0.1c0.4,0,0.6-0.3,0.8-0.7
	c0.3-0.5,0.5-1.1,0.5-1.1s-0.3,1.5,0.5,1.5c0.3,0,0.6-0.4,0.7-0.5v0c0,0,0,0,0,0c0,0,0-0.1,0-0.1v0c0.1-0.2,0.4-0.6,0.7-1.4
	c0.5-0.9,0.9-2.1,0.9-2.1s0,0.3,0.2,0.8c0.1,0.3,0.3,0.6,0.4,0.9l-0.2,0.2l0,0c-0.1,0.1-0.2,0.2-0.3,0.4c-0.4,0.5-0.8,1-0.9,1.1
	c-0.1,0.2-0.1,0.3,0.1,0.4c0.1,0.1,0.3,0.1,0.5,0.1c0.3,0,0.6-0.1,0.7-0.2c0.2-0.1,0.4-0.2,0.6-0.3c0.4-0.3,0.6-0.7,0.6-1.2
	c0-0.3-0.1-0.6-0.2-0.8l0.1-0.1c0.6-0.9,1-1.8,1-1.8s0,0.3,0.2,0.8c0.1,0.2,0.2,0.5,0.3,0.8c-0.5,0.4-0.9,1-1,1.3
	c-0.2,0.6,0,0.9,0.3,1c0.1,0,0.4,0,0.5-0.1c0.2-0.1,0.4-0.2,0.6-0.3c0.4-0.3,0.7-0.7,0.7-1.2c0-0.2-0.1-0.5-0.2-0.7
	c0.5-0.2,1.1-0.3,1.8-0.2c1.6,0.2,2,1.2,1.9,1.6c-0.1,0.4-0.4,0.7-0.5,0.7c-0.1,0.1-0.2,0.1-0.1,0.1c0,0.1,0.1,0.1,0.2,0.1
	c0.1,0,0.9-0.4,0.9-1.1C33.7,26.1,32.8,25,31.1,25L31.1,25z M18.4,29.3c-0.5,0.6-1.3,0.8-1.6,0.6c-0.4-0.2-0.2-1.1,0.5-1.7
	c0.4-0.4,0.9-0.7,1.3-1l0.3-0.2c0,0,0,0,0,0c0,0,0.1,0,0.1-0.1C19.2,27.9,18.9,28.7,18.4,29.3L18.4,29.3z M22.3,26.6
	c-0.2,0.5-0.6,1.6-0.8,1.6c-0.2-0.1-0.3-1,0-1.8c0.1-0.4,0.5-1,0.6-1.2c0.3-0.3,0.6-0.4,0.7-0.3C22.9,25,22.5,26.3,22.3,26.6
	L22.3,26.6z M25.6,28.2c-0.1,0-0.2,0.1-0.2,0c0,0,0-0.1,0-0.1s0.4-0.4,0.6-0.6l0.3-0.4v0C26.4,27.7,25.9,28,25.6,28.2L25.6,28.2z
	 M28.2,27.6c-0.1,0-0.1-0.2,0.1-0.6c0.1-0.2,0.3-0.5,0.6-0.7c0,0.1,0.1,0.2,0.1,0.3C28.9,27.2,28.4,27.5,28.2,27.6z"/>
</svg>
