<?xml version="1.0" encoding="UTF-8"?>
<svg id="Layer_1" data-name="Layer 1" xmlns="http://www.w3.org/2000/svg" viewBox="0 0 94.75 48">
  <defs>
    <style>
      .cls-1 {
        fill: #fff;
      }

      .cls-2 {
        fill: #cf649a;
      }
    </style>
  </defs>
  <rect class="cls-2" width="94.75" height="48" rx="13.56" ry="13.56"/>
  <circle class="cls-1" cx="24.24" cy="24" r="15.86"/>
  <g>
    <path class="cls-1" d="m54.65,20.76c-.07.11-.14.19-.22.25s-.17.08-.29.08c-.1,0-.22-.03-.34-.1-.12-.07-.26-.14-.41-.22s-.33-.16-.52-.22-.42-.1-.67-.1c-.43,0-.75.09-.97.28-.21.18-.32.43-.32.75,0,.2.06.37.19.5.13.13.29.25.5.34.21.1.44.18.71.26.27.08.54.17.82.27.28.1.55.21.82.34s.5.3.71.5c.21.21.37.45.5.75.13.29.19.65.19,1.06,0,.46-.08.89-.24,1.29-.16.4-.39.75-.69,1.05-.3.3-.68.53-1.12.7-.44.17-.95.26-1.51.26-.31,0-.62-.03-.95-.1-.32-.06-.63-.15-.93-.27-.3-.12-.58-.25-.85-.41-.26-.16-.49-.34-.69-.53l.68-1.08c.05-.08.12-.15.21-.2.09-.05.19-.08.29-.08.14,0,.27.04.41.13s.3.18.47.29c.17.1.38.2.6.29.23.09.5.13.81.13.42,0,.74-.09.98-.28.23-.18.35-.48.35-.88,0-.23-.06-.42-.19-.57-.13-.15-.29-.27-.5-.36s-.44-.18-.71-.25c-.26-.07-.54-.15-.81-.24-.28-.09-.55-.2-.81-.33-.26-.13-.5-.3-.71-.51-.21-.21-.38-.48-.5-.79-.13-.32-.19-.71-.19-1.17,0-.37.08-.74.23-1.09s.37-.67.66-.95c.29-.28.65-.5,1.07-.67.42-.17.91-.25,1.45-.25.3,0,.6.02.89.07s.56.12.82.21c.26.09.5.21.73.33.23.13.43.28.6.44l-.57,1.07Z"/>
    <path class="cls-1" d="m67.81,28.68h-1.79c-.2,0-.37-.05-.5-.14-.13-.09-.22-.21-.27-.36l-.59-1.73h-3.78l-.59,1.73c-.05.13-.13.24-.27.34-.13.1-.29.15-.48.15h-1.8l3.85-9.95h2.36l3.85,9.95Zm-6.39-3.8h2.72l-.91-2.72c-.06-.17-.13-.38-.21-.61-.08-.23-.16-.49-.24-.76-.07.28-.15.53-.22.77-.08.24-.15.44-.22.61l-.92,2.71Z"/>
    <path class="cls-1" d="m76.21,20.76c-.07.11-.14.19-.21.25s-.17.08-.29.08c-.1,0-.22-.03-.34-.1-.12-.07-.26-.14-.41-.22s-.33-.16-.52-.22c-.2-.07-.42-.1-.67-.1-.43,0-.75.09-.97.28-.21.18-.32.43-.32.75,0,.2.06.37.19.5.13.13.29.25.5.34.21.1.44.18.71.26s.54.17.82.27.55.21.82.34c.27.13.5.3.71.5.21.21.37.45.5.75.13.29.19.65.19,1.06,0,.46-.08.89-.24,1.29-.16.4-.39.75-.69,1.05-.3.3-.68.53-1.12.7-.44.17-.95.26-1.51.26-.31,0-.62-.03-.95-.1-.32-.06-.63-.15-.93-.27-.3-.12-.58-.25-.85-.41s-.49-.34-.69-.53l.68-1.08c.05-.08.12-.15.21-.2.09-.05.19-.08.29-.08.14,0,.27.04.41.13s.3.18.47.29c.17.1.38.2.6.29.23.09.5.13.81.13.42,0,.74-.09.98-.28.23-.18.35-.48.35-.88,0-.23-.06-.42-.19-.57-.13-.15-.29-.27-.5-.36s-.44-.18-.71-.25-.53-.15-.81-.24c-.28-.09-.55-.2-.81-.33-.26-.13-.5-.3-.71-.51-.21-.21-.37-.48-.5-.79-.13-.32-.19-.71-.19-1.17,0-.37.07-.74.22-1.09s.37-.67.66-.95c.29-.28.65-.5,1.07-.67.42-.17.91-.25,1.45-.25.3,0,.6.02.89.07s.56.12.82.21c.26.09.5.21.73.33.22.13.43.28.6.44l-.57,1.07Z"/>
    <path class="cls-1" d="m85.66,20.76c-.07.11-.14.19-.22.25s-.17.08-.29.08c-.1,0-.22-.03-.34-.1-.12-.07-.26-.14-.41-.22s-.33-.16-.52-.22-.42-.1-.67-.1c-.43,0-.75.09-.97.28-.21.18-.32.43-.32.75,0,.2.06.37.19.5.13.13.29.25.5.34.21.1.44.18.71.26.27.08.54.17.82.27.28.1.55.21.82.34s.5.3.71.5c.21.21.37.45.5.75.13.29.19.65.19,1.06,0,.46-.08.89-.24,1.29-.16.4-.39.75-.69,1.05-.3.3-.68.53-1.12.7-.44.17-.95.26-1.51.26-.31,0-.62-.03-.95-.1-.32-.06-.63-.15-.93-.27-.3-.12-.58-.25-.85-.41-.26-.16-.49-.34-.69-.53l.68-1.08c.05-.08.12-.15.21-.2.09-.05.19-.08.29-.08.14,0,.27.04.41.13s.3.18.47.29c.17.1.38.2.6.29.23.09.5.13.81.13.42,0,.74-.09.98-.28.23-.18.35-.48.35-.88,0-.23-.06-.42-.19-.57-.13-.15-.29-.27-.5-.36s-.44-.18-.71-.25c-.26-.07-.54-.15-.81-.24-.28-.09-.55-.2-.81-.33-.26-.13-.5-.3-.71-.51-.21-.21-.38-.48-.5-.79-.13-.32-.19-.71-.19-1.17,0-.37.08-.74.23-1.09s.37-.67.66-.95c.29-.28.65-.5,1.07-.67.42-.17.91-.25,1.45-.25.3,0,.6.02.89.07s.56.12.82.21c.26.09.5.21.73.33.23.13.43.28.6.44l-.57,1.07Z"/>
  </g>
  <path class="cls-2" d="m31.06,25.02c-.66,0-1.23.16-1.71.4-.18-.35-.35-.66-.38-.89-.03-.27-.07-.43-.03-.75s.23-.77.23-.81c0-.03-.04-.2-.42-.2s-.71.07-.75.17c-.07.18-.12.37-.16.57-.07.35-.76,1.58-1.16,2.22-.13-.25-.24-.47-.26-.65-.03-.27-.07-.43-.03-.75s.23-.77.23-.81c0-.03-.04-.2-.42-.2s-.71.07-.75.17-.08.34-.16.57c-.08.23-1,2.28-1.24,2.82-.12.27-.23.49-.31.64s0,.01-.01.03l-.1.2h0c-.05.1-.11.18-.13.18-.02,0-.06-.25,0-.59.14-.71.47-1.83.47-1.87,0-.02.06-.21-.21-.31-.27-.1-.37.07-.39.07s-.04.06-.04.06c0,0,.3-1.25-.57-1.25-.55,0-1.3.59-1.67,1.14l-1.88,1.03-.04-.04c-1.06-1.13-3.01-1.93-2.93-3.44.03-.55.22-2,3.75-3.76,2.89-1.44,5.21-1.05,5.61-.17.57,1.26-1.24,3.59-4.25,3.93-1.15.13-1.75-.31-1.9-.48-.16-.17-.18-.18-.24-.15-.1.05-.04.21,0,.3.09.23.46.65,1.09.85.55.18,1.9.28,3.52-.35,1.82-.71,3.24-2.66,2.83-4.3-.43-1.67-3.19-2.21-5.8-1.29-1.56.55-3.24,1.42-4.45,2.55-1.44,1.34-1.67,2.52-1.58,3.01.34,1.74,2.73,2.87,3.69,3.71l-.13.07c-.48.24-2.31,1.19-2.77,2.21-.52,1.15.08,1.97.48,2.08,1.23.34,2.5-.27,3.18-1.29.68-1.02.6-2.33.28-2.94v-.02s.37-.22.37-.22c.24-.14.48-.28.69-.39-.12.32-.2.7-.25,1.26-.05.65.21,1.49.57,1.83.16.14.34.15.45.15.41,0,.59-.34.79-.74.25-.49.47-1.06.47-1.06,0,0-.28,1.54.48,1.54.28,0,.55-.36.68-.54h0s0,0,.02-.03c.03-.04.04-.07.04-.07h0c.11-.2.36-.64.73-1.37.48-.94.93-2.11.93-2.11,0,0,.04.29.18.76.08.28.26.59.4.89l-.18.24h0c-.09.13-.19.25-.29.37-.38.45-.83.96-.89,1.11-.07.17-.06.3.08.41.1.07.28.09.47.07.34-.02.58-.11.69-.16.21-.08.41-.18.6-.31.37-.27.59-.66.57-1.18-.01-.28-.1-.57-.22-.83l.1-.15c.58-.85,1.03-1.79,1.03-1.79,0,0,.04.29.18.76.07.24.21.5.34.76-.55.45-.89.96-1.01,1.3-.22.63-.05.91.27.98.14.03.35-.04.51-.1.19-.06.43-.17.64-.33.37-.27.72-.65.71-1.17-.01-.24-.07-.47-.16-.69.47-.19,1.07-.3,1.83-.21,1.64.19,1.97,1.22,1.91,1.65s-.41.66-.52.74c-.11.07-.15.1-.14.15.01.08.07.07.17.06.14-.02.86-.35.89-1.14.04-1.02-.92-2.12-2.63-2.11h0Zm-12.68,4.28c-.54.59-1.31.82-1.63.63-.35-.2-.21-1.08.45-1.71.41-.38.93-.74,1.28-.96l.34-.2s.04-.02.04-.02c.03-.01.06-.03.09-.05.25.9.01,1.69-.56,2.32h0Zm3.97-2.7c-.19.46-.59,1.65-.83,1.58-.21-.06-.33-.95-.04-1.84.15-.45.46-.98.65-1.19.3-.33.62-.44.71-.31.1.18-.37,1.46-.48,1.75h0Zm3.28,1.57c-.08.04-.16.07-.19.05-.03-.01.03-.07.03-.07,0,0,.41-.44.57-.64l.32-.41v.04c0,.53-.51.89-.74,1.03h0Zm2.53-.58c-.06-.04-.05-.18.15-.61.08-.17.26-.45.56-.72.04.11.06.22.06.32,0,.66-.48.91-.76,1.02Z"/>
</svg>