<?xml version="1.0" encoding="UTF-8"?>
<svg id="Layer_1" data-name="Layer 1" xmlns="http://www.w3.org/2000/svg" xmlns:xlink="http://www.w3.org/1999/xlink" viewBox="0 0 172.16 48">
  <defs>
    <style>
      .cls-1 {
        fill: #fff;
      }

      .cls-2 {
        fill: url(#linear-gradient);
        fill-rule: evenodd;
      }

      .cls-3 {
        fill: #2383ae;
      }
    </style>
    <linearGradient id="linear-gradient" x1="13.69" y1="740.72" x2="32.6" y2="709.2" gradientTransform="translate(1.33 748.96) scale(1 -1)" gradientUnits="userSpaceOnUse">
      <stop offset="0" stop-color="#2383ae"/>
      <stop offset="1" stop-color="#6dd7b9"/>
    </linearGradient>
  </defs>
  <rect class="cls-3" width="172.16" height="48" rx="13.56" ry="13.56"/>
  <g>
    <circle class="cls-1" cx="24.24" cy="24" r="15.86"/>
    <path class="cls-2" d="m19.75,22.11c.63-2.52,2.21-3.78,4.73-3.78,3.78,0,4.26,2.84,6.15,3.31,1.26.32,2.36-.16,3.31-1.42-.63,2.52-2.21,3.78-4.73,3.78-3.78,0-4.26-2.84-6.15-3.31-1.26-.32-2.36.16-3.31,1.42h0Zm-4.73,5.68c.63-2.52,2.21-3.78,4.73-3.78,3.78,0,4.26,2.84,6.15,3.31,1.26.32,2.36-.16,3.31-1.42-.63,2.52-2.21,3.78-4.73,3.78-3.78,0-4.26-2.84-6.15-3.31-1.26-.32-2.36.16-3.31,1.42Z"/>
  </g>
  <g>
    <path class="cls-1" d="m56.39,19.03v1.83h-2.8v8.12h-2.31v-8.12h-2.8v-1.83h7.9Z"/>
    <path class="cls-1" d="m67.56,28.97h-1.79c-.2,0-.37-.05-.5-.14-.13-.09-.22-.21-.27-.36l-.59-1.73h-3.78l-.59,1.73c-.05.13-.13.24-.27.34-.13.1-.29.15-.48.15h-1.8l3.85-9.95h2.36l3.85,9.95Zm-6.39-3.8h2.72l-.91-2.72c-.06-.17-.13-.38-.21-.61s-.16-.49-.24-.76c-.07.28-.15.53-.23.77-.08.24-.15.44-.22.61l-.92,2.71Z"/>
    <path class="cls-1" d="m72.94,28.97h-2.32v-9.95h2.32v9.95Z"/>
    <path class="cls-1" d="m79.14,27.13h3.69v1.84h-5.99v-9.95h2.31v8.1Z"/>
    <path class="cls-1" d="m83.99,19.03h1.94c.2,0,.37.05.5.14.13.09.22.21.26.36l1.37,5.19c.05.17.09.35.14.54.05.19.08.39.1.6.05-.21.1-.42.15-.6s.11-.37.16-.54l1.61-5.19c.04-.13.13-.24.26-.34.13-.1.3-.15.49-.15h.68c.2,0,.37.04.49.13.13.09.22.21.27.37l1.6,5.19c.05.16.1.33.16.51.05.18.1.37.14.58.04-.2.07-.39.11-.57.04-.18.08-.35.12-.51l1.37-5.19c.04-.13.12-.25.26-.35.14-.1.3-.15.49-.15h1.82l-3.07,9.95h-2.09l-1.87-6.16c-.03-.1-.06-.2-.1-.31-.03-.11-.07-.23-.1-.36-.03.13-.06.25-.1.36s-.07.22-.1.31l-1.9,6.16h-2.09l-3.07-9.95Z"/>
    <path class="cls-1" d="m103.93,28.97h-2.32v-9.95h2.32v9.95Z"/>
    <path class="cls-1" d="m109.29,19.04c.07,0,.13.03.18.05.05.02.11.06.16.11.05.05.11.11.17.18l4.72,5.97c-.02-.19-.03-.38-.04-.56,0-.18-.01-.35-.01-.51v-5.26h2.03v9.95h-1.2c-.18,0-.33-.03-.45-.08-.12-.05-.24-.16-.35-.3l-4.69-5.93c.01.17.02.34.03.51,0,.17.01.32.01.47v5.33h-2.03v-9.95h1.21c.1,0,.18,0,.25.01Z"/>
    <path class="cls-1" d="m129.22,24c0,.72-.12,1.38-.37,1.99-.25.61-.6,1.13-1.05,1.58-.45.44-.99.79-1.63,1.04-.63.25-1.34.37-2.11.37h-3.86v-9.95h3.86c.77,0,1.48.12,2.11.38.64.25,1.18.6,1.63,1.04.45.44.8.97,1.05,1.57.25.61.37,1.27.37,1.98Zm-2.36,0c0-.49-.06-.94-.19-1.33s-.31-.73-.55-1.01c-.24-.28-.53-.49-.88-.63s-.74-.22-1.18-.22h-1.54v6.4h1.54c.44,0,.84-.07,1.18-.22.35-.15.64-.36.88-.63.24-.28.42-.61.55-1.01.13-.4.19-.84.19-1.34Z"/>
    <path class="cls-1" d="m143.74,26.4c.05,0,.11.01.16.03s.11.06.16.11l.92.96c-.4.52-.9.92-1.51,1.18-.6.27-1.32.4-2.14.4-.76,0-1.43-.13-2.03-.39-.6-.26-1.11-.61-1.52-1.07-.42-.45-.74-.99-.96-1.61-.22-.62-.33-1.3-.33-2.02s.13-1.42.38-2.04c.25-.62.61-1.16,1.07-1.61s1-.8,1.64-1.05c.64-.25,1.34-.38,2.11-.38.37,0,.72.03,1.05.1s.64.16.93.27c.29.12.55.25.79.42s.46.34.64.54l-.78,1.04c-.05.06-.11.12-.18.17s-.16.08-.29.08c-.08,0-.16-.02-.23-.05-.07-.04-.15-.08-.23-.13-.08-.05-.17-.11-.27-.17-.1-.06-.21-.12-.35-.17s-.29-.1-.47-.13c-.18-.04-.39-.05-.63-.05-.42,0-.8.07-1.15.22-.35.15-.64.36-.89.63s-.44.61-.58,1c-.14.39-.21.83-.21,1.32s.07.96.21,1.36c.14.4.33.73.57,1,.24.27.52.48.84.62.32.14.66.21,1.02.21.21,0,.4,0,.57-.03s.33-.06.48-.11c.15-.05.29-.12.42-.2.13-.08.27-.18.41-.3.05-.04.11-.08.18-.11.06-.03.13-.04.2-.04Z"/>
    <path class="cls-1" d="m153.61,21.05c-.07.11-.14.19-.22.25s-.17.08-.29.08c-.1,0-.22-.03-.34-.1s-.26-.14-.41-.22-.33-.16-.52-.22c-.2-.07-.42-.1-.67-.1-.43,0-.75.09-.97.28-.21.18-.32.43-.32.75,0,.2.06.37.19.5.13.13.29.25.5.34.21.1.44.18.71.26.27.08.54.17.82.27.28.1.55.21.82.34.27.13.5.3.71.5.21.21.37.45.5.75s.19.65.19,1.06c0,.46-.08.89-.24,1.29-.16.4-.39.75-.69,1.05-.3.3-.68.53-1.12.7-.44.17-.95.26-1.51.26-.31,0-.62-.03-.95-.1s-.63-.15-.93-.27c-.3-.12-.58-.25-.85-.41-.26-.16-.49-.34-.69-.53l.68-1.08c.05-.08.12-.15.21-.2.09-.05.19-.08.29-.08.14,0,.27.04.41.13.14.09.3.18.47.29.17.1.38.2.6.29.23.09.5.13.81.13.42,0,.74-.09.98-.28.23-.18.35-.48.35-.88,0-.23-.06-.42-.19-.57-.13-.15-.29-.27-.5-.36s-.44-.18-.71-.25c-.26-.07-.53-.15-.81-.24-.28-.09-.55-.2-.81-.33-.26-.13-.5-.3-.71-.51-.21-.21-.37-.48-.5-.79s-.19-.71-.19-1.17c0-.37.07-.74.23-1.09s.37-.67.66-.95c.29-.28.65-.5,1.07-.67.42-.17.91-.25,1.45-.25.3,0,.6.02.89.07s.56.12.82.21.5.21.73.33c.23.13.43.28.6.44l-.57,1.07Z"/>
    <path class="cls-1" d="m163.06,21.05c-.07.11-.14.19-.22.25s-.17.08-.29.08c-.1,0-.22-.03-.34-.1s-.26-.14-.41-.22-.33-.16-.52-.22c-.2-.07-.42-.1-.67-.1-.43,0-.75.09-.97.28-.21.18-.32.43-.32.75,0,.2.06.37.19.5.13.13.29.25.5.34.21.1.44.18.71.26.27.08.54.17.82.27.28.1.55.21.82.34.27.13.5.3.71.5.21.21.37.45.5.75s.19.65.19,1.06c0,.46-.08.89-.24,1.29-.16.4-.39.75-.69,1.05-.3.3-.68.53-1.12.7-.44.17-.95.26-1.51.26-.31,0-.62-.03-.95-.1s-.63-.15-.93-.27c-.3-.12-.58-.25-.85-.41-.26-.16-.49-.34-.69-.53l.68-1.08c.05-.08.12-.15.21-.2.09-.05.19-.08.29-.08.14,0,.27.04.41.13.14.09.3.18.47.29.17.1.38.2.6.29.23.09.5.13.81.13.42,0,.74-.09.98-.28.23-.18.35-.48.35-.88,0-.23-.06-.42-.19-.57-.13-.15-.29-.27-.5-.36s-.44-.18-.71-.25c-.26-.07-.53-.15-.81-.24-.28-.09-.55-.2-.81-.33-.26-.13-.5-.3-.71-.51-.21-.21-.37-.48-.5-.79s-.19-.71-.19-1.17c0-.37.07-.74.23-1.09s.37-.67.66-.95c.29-.28.65-.5,1.07-.67.42-.17.91-.25,1.45-.25.3,0,.6.02.89.07s.56.12.82.21.5.21.73.33c.23.13.43.28.6.44l-.57,1.07Z"/>
  </g>
</svg>