<?xml version="1.0" encoding="UTF-8"?>
<svg id="Layer_1" data-name="Layer 1" xmlns="http://www.w3.org/2000/svg" viewBox="0 0 87.96 48">
  <defs>
    <style>
      .cls-1 {
        fill: #fff;
      }

      .cls-2 {
        fill: #42b883;
      }

      .cls-3 {
        fill: #35495e;
      }
    </style>
  </defs>
  <rect class="cls-2" width="87.96" height="48" rx="13.56" ry="13.56"/>
  <circle class="cls-1" cx="24.24" cy="24" r="15.86"/>
  <g>
    <path class="cls-1" d="m48.29,18.74h1.86c.2,0,.36.05.49.14s.22.21.27.36l1.93,5.33c.09.23.17.48.26.76.09.27.17.56.25.86.06-.3.14-.59.22-.86.08-.27.17-.53.25-.76l1.91-5.33c.05-.13.13-.24.27-.34.13-.1.29-.15.48-.15h1.87l-3.99,9.95h-2.09l-3.99-9.95Z"/>
    <path class="cls-1" d="m65.35,26.86c.31,0,.59-.05.83-.15.24-.1.45-.25.62-.44.17-.19.3-.42.39-.7.09-.28.13-.59.13-.94v-5.89h2.31v5.89c0,.61-.1,1.17-.3,1.68-.2.51-.48.95-.85,1.32-.37.37-.82.66-1.34.86-.53.21-1.12.31-1.78.31s-1.26-.1-1.79-.31-.98-.49-1.34-.86c-.37-.37-.65-.81-.85-1.32s-.29-1.07-.29-1.68v-5.89h2.31v5.88c0,.35.04.66.13.94s.22.51.39.7.37.34.62.44.52.15.83.15Z"/>
    <path class="cls-1" d="m79.58,18.74v1.78h-4.08v2.32h3.13v1.71h-3.13v2.37h4.08v1.78h-6.4v-9.95h6.4Z"/>
  </g>
  <g>
    <path id="path4" class="cls-2" d="m26.4,15.77l-2.17,3.79-2.17-3.79h-7.29l9.46,16.4,9.46-16.4h-7.29Z"/>
    <path id="path6" class="cls-3" d="m26.4,15.77l-2.17,3.79-2.17-3.79h-3.5l5.66,9.85,5.66-9.85h-3.5Z"/>
  </g>
</svg>